<svg xmlns="http://www.w3.org/2000/svg" width="14" height="10" viewBox="0 0 14 10">
    <g fill="#FFF" fill-rule="evenodd">
        <path d="M1.736 3.17c.163.11.654.434 1.473.974.82.54 1.447.954 1.883 1.246.047.032.15.1.305.208a7.519 7.519 0 0 0 .762.481c.146.082.283.144.413.184.13.041.249.062.359.062h.014c.11 0 .23-.02.36-.062.13-.04.267-.102.413-.184a7.62 7.62 0 0 0 .374-.222c.103-.066.232-.152.388-.26l.305-.207c.44-.292 1.562-1.031 3.363-2.22.35-.231.642-.511.876-.84.235-.327.353-.67.353-1.03 0-.3-.114-.558-.342-.772a1.14 1.14 0 0 0-.808-.32H1.65c-.37 0-.653.118-.852.355C.6.799.5 1.095.5 1.45c0 .287.132.598.395.932.264.335.544.598.84.789z"/>
        <path d="M12.658 3.901A149.814 149.814 0 0 0 9.08 6.257c-.273.19-.495.34-.665.447-.17.107-.396.216-.68.328a2.162 2.162 0 0 1-.79.167h-.014c-.244 0-.508-.056-.79-.167a4.19 4.19 0 0 1-.68-.328c-.17-.107-.391-.256-.664-.447C4.15 5.807 2.96 5.02 1.226 3.9A3.762 3.762 0 0 1 .5 3.307v5.421c0 .3.113.558.338.772.225.214.496.32.812.32h10.577c.316 0 .587-.106.812-.32.225-.214.338-.471.338-.772v-5.42a3.913 3.913 0 0 1-.72.593z"/>
    </g>
</svg>
