<svg xmlns="http://www.w3.org/2000/svg" width="15" height="14" viewBox="0 0 15 14">
    <path fill="#FFF" fill-rule="evenodd"
          d="M13.322 10.222c-.122-.07-.296-.167-.52-.29-.226-.122-.43-.234-.614-.337a20.586 20.586 0 0 1-.516-.3l-.241-.168a2.706 2.706 0 0 0-.343-.208.63.63 0 0 0-.275-.067c-.128 0-.289.092-.482.275-.193.183-.37.383-.53.598-.161.216-.332.415-.512.598-.18.184-.328.275-.443.275a.656.656 0 0 1-.218-.048 2.209 2.209 0 0 1-.197-.082 3.569 3.569 0 0 1-.232-.135 6.368 6.368 0 0 0-.183-.111 10.131 10.131 0 0 1-2.267-1.679c-.63-.63-1.19-1.386-1.68-2.267a5.453 5.453 0 0 0-.11-.183 3.474 3.474 0 0 1-.135-.232 2.094 2.094 0 0 1-.082-.198.653.653 0 0 1-.048-.217c0-.115.091-.264.275-.444.183-.18.382-.35.598-.51.215-.162.415-.338.598-.531s.275-.354.275-.483a.63.63 0 0 0-.068-.275 2.678 2.678 0 0 0-.207-.342c-.093-.135-.15-.216-.169-.242-.096-.16-.196-.332-.299-.516a48.173 48.173 0 0 1-.338-.612A23.21 23.21 0 0 0 4.07.97C3.846.52 3.675.275 3.56.237a.54.54 0 0 0-.203-.03c-.174 0-.4.033-.68.097s-.5.132-.661.203c-.322.135-.663.527-1.023 1.177C.664 2.288.5 2.886.5 3.478c0 .174.011.343.034.507.022.164.063.349.12.554.058.206.105.36.14.459l.198.535c.096.257.154.415.174.473.225.63.492 1.193.8 1.688.508.824 1.201 1.674 2.08 2.552.877.878 1.728 1.571 2.551 2.08a8.755 8.755 0 0 0 1.689.8c.058.02.215.077.473.174.257.097.435.162.535.198.1.035.252.082.458.14.206.058.391.098.555.12.164.023.333.034.507.034.591 0 1.19-.164 1.794-.492.65-.36 1.042-.7 1.177-1.023.07-.16.138-.38.203-.66.064-.28.096-.507.096-.68 0-.09-.01-.158-.029-.204-.038-.115-.283-.286-.733-.511z"/>
</svg>
